<svg width="19" height="19" viewBox="0 0 19 19" fill="none" xmlns="http://www.w3.org/2000/svg">
<g clip-path="url(#clip0_5_60)">
<path d="M12.825 10.1333C12.5083 9.81667 12.0333 9.81667 11.7167 10.1333L10.2917 11.5583V2.375C10.2917 1.9 9.975 1.58333 9.5 1.58333C9.025 1.58333 8.70833 1.9 8.70833 2.375V11.5583L7.28333 10.1333C6.96667 9.81667 6.49167 9.81667 6.175 10.1333C5.85833 10.45 5.85833 10.925 6.175 11.2417L8.94583 14.0125C9.10417 14.1708 9.34167 14.25 9.5 14.25C9.65833 14.25 9.89583 14.1708 10.0542 14.0125L12.825 11.2417C13.1417 10.925 13.1417 10.3708 12.825 10.1333Z" fill="#EF6C27"/>
<path d="M14.25 17.4167H4.75C4.275 17.4167 3.95833 17.1 3.95833 16.625C3.95833 16.15 4.275 15.8333 4.75 15.8333H14.25C14.725 15.8333 15.0417 16.15 15.0417 16.625C15.0417 17.1 14.725 17.4167 14.25 17.4167Z" fill="#EF6C27"/>
</g>
<defs>
<clipPath id="clip0_5_60">
<rect width="19" height="19" fill="white"/>
</clipPath>
</defs>
</svg>
