<svg width="49" height="49" viewBox="0 0 49 49" fill="none" xmlns="http://www.w3.org/2000/svg">
<path d="M36.7463 0H12.2488C5.51255 0 0 5.51255 0 12.2488V36.7475C0 43.482 5.51255 48.9963 12.2488 48.9963H36.7463C43.4826 48.9963 48.9951 43.482 48.9951 36.7475V12.2488C48.9951 5.51255 43.4826 0 36.7463 0ZM44.912 36.7475C44.912 41.249 41.2503 44.9132 36.7463 44.9132H12.2488C7.74675 44.9132 4.08313 41.249 4.08313 36.7475V12.2488C4.08313 7.74616 7.74675 4.08313 12.2488 4.08313H36.7463C41.2503 4.08313 44.912 7.74616 44.912 12.2488V36.7475Z" fill="white"/>
<path d="M24.4976 12.2488C17.7313 12.2488 12.2488 17.7319 12.2488 24.4976C12.2488 31.2607 17.7313 36.7475 24.4976 36.7475C31.2619 36.7475 36.7463 31.2607 36.7463 24.4976C36.7463 17.7319 31.2619 12.2488 24.4976 12.2488ZM24.4976 32.6644C19.9881 32.6644 16.3319 29.0082 16.3319 24.4976C16.3319 19.9869 19.9881 16.3319 24.4976 16.3319C29.007 16.3319 32.6632 19.9869 32.6632 24.4976C32.6632 29.0082 29.007 32.6644 24.4976 32.6644Z" fill="white"/>
</svg>
