<?xml version="1.0" encoding="UTF-8"?>
<svg id="Layer_1" data-name="Layer 1" xmlns="http://www.w3.org/2000/svg" width="439.23" height="245.02" viewBox="0 0 439.23 245.02">
  <defs>
    <style>
      .cls-1, .cls-2, .cls-3, .cls-4, .cls-5, .cls-6, .cls-7 {
        stroke-width: 0px;
      }

      .cls-2 {
        fill: #808285;
      }

      .cls-3 {
        fill: #3d3d3d;
      }

      .cls-4 {
        fill: #444545;
      }

      .cls-5 {
        fill: #101010;
      }

      .cls-6 {
        fill: #1e1e1e;
      }

      .cls-7 {
        fill: #303030;
      }
    </style>
  </defs>
  <g>
    <path class="cls-1" d="m276.01,116.54h3.79v6.48h6.29v-6.48h3.79v16.79h-3.79v-6.72h-6.29v6.72h-3.79v-16.79Z"/>
    <path class="cls-1" d="m294.8,116.54h11.08v3.41h-7.34v3.09h6.21v3.5h-6.21v3.33h7.68v3.45h-11.42v-16.79Z"/>
    <path class="cls-1" d="m315.13,116.54h4.61l6.24,16.79h-4.1l-1.16-3.36h-6.6l-1.16,3.36h-4.05l6.24-16.79Zm4.62,10.15l-2.33-6.3-2.34,6.3h4.67Z"/>
    <path class="cls-1" d="m329.34,116.54h3.79v13.22h7.27v3.57h-11.06v-16.79Z"/>
    <path class="cls-1" d="m344.64,120.09h-4.51v-3.55h12.81v3.55h-4.51v13.24h-3.79v-13.24Z"/>
    <path class="cls-1" d="m356.79,116.54h3.79v6.48h6.29v-6.48h3.79v16.79h-3.79v-6.72h-6.29v6.72h-3.79v-16.79Z"/>
    <path class="cls-1" d="m381.54,128.67c0-1.54.77-2.89,2-3.84-.88-.9-1.4-2.1-1.4-3.42,0-2.83,2.4-5.11,5.71-5.11,1.08,0,3.08.24,4.53,1.24l-2.25,2.25c-.85-.29-1.59-.36-2.06-.36-1.67,0-2.52.96-2.52,2.04s.86,2.01,2.18,2.01h2.69v-2.1h3.38v2.1h2.1v3.09h-2.1v1.99c0,2.88-2.66,5.06-6.16,5.06s-6.09-2.11-6.09-4.97Zm8.88-.1v-1.99h-2.61c-1.66,0-2.88.94-2.88,2.11,0,1.1,1.1,1.92,2.69,1.92,1.68,0,2.81-.91,2.81-2.04Z"/>
    <path class="cls-1" d="m276.01,145.34h3.81v16.79h-3.81v-16.79Z"/>
    <path class="cls-1" d="m284.74,145.34h3.67l7.1,10.58v-10.58h3.65v16.79h-3.65l-7.12-10.63v10.63h-3.65v-16.79Z"/>
    <path class="cls-1" d="m304.09,145.34h3.67l7.1,10.58v-10.58h3.65v16.79h-3.65l-7.12-10.63v10.63h-3.65v-16.79Z"/>
    <path class="cls-1" d="m322.53,153.76c0-4.84,3.93-8.75,8.78-8.75s8.78,3.91,8.78,8.75-3.93,8.78-8.78,8.78-8.78-3.91-8.78-8.78Zm13.7,0c0-2.85-2.16-5.08-4.92-5.08s-4.92,2.23-4.92,5.08,2.16,5.11,4.92,5.11,4.92-2.25,4.92-5.11Z"/>
    <path class="cls-1" d="m340.69,145.34h4.34l4.37,12.34,3.93-12.34h4.34l-6.33,16.79h-4.32l-6.33-16.79Z"/>
    <path class="cls-1" d="m364.03,145.34h4.61l6.24,16.79h-4.1l-1.16-3.36h-6.6l-1.16,3.36h-4.05l6.24-16.79Zm4.62,10.15l-2.33-6.3-2.34,6.3h4.67Z"/>
    <path class="cls-1" d="m379.51,148.89h-4.51v-3.55h12.81v3.55h-4.51v13.24h-3.79v-13.24Z"/>
    <path class="cls-1" d="m391.66,145.34h3.81v16.79h-3.81v-16.79Z"/>
    <path class="cls-1" d="m399.5,153.76c0-4.84,3.93-8.75,8.78-8.75s8.78,3.91,8.78,8.75-3.93,8.78-8.78,8.78-8.78-3.91-8.78-8.78Zm13.7,0c0-2.85-2.16-5.08-4.92-5.08s-4.92,2.23-4.92,5.08,2.16,5.11,4.92,5.11,4.92-2.25,4.92-5.11Z"/>
    <path class="cls-1" d="m420.77,145.34h3.67l7.1,10.58v-10.58h3.65v16.79h-3.65l-7.12-10.63v10.63h-3.65v-16.79Z"/>
    <path class="cls-1" d="m276.01,174.14h5.66c4.85,0,8.78,3.26,8.78,8.42s-3.93,8.37-8.78,8.37h-5.66v-16.79Zm5.66,13.28c2.76,0,4.94-1.63,4.94-4.86s-2.18-4.79-4.94-4.79h-1.87v9.64h1.87Z"/>
    <path class="cls-1" d="m294.16,174.14h3.81v16.79h-3.81v-16.79Z"/>
    <path class="cls-1" d="m302.27,190.01v-3.99c1.33.86,2.89,1.56,4.96,1.56,1.27,0,3.05-.38,3.05-1.49,0-2.38-8.18-1.25-8.18-6.86,0-3.12,2.52-5.37,6.33-5.37,1.54,0,3.38.37,4.65.98v3.85c-1.19-.73-2.83-1.28-4.25-1.28-1.78,0-2.97.65-2.97,1.54,0,2.35,8.35,1.15,8.35,6.84,0,3.14-2.54,5.44-6.38,5.44-2.69,0-4.34-.62-5.56-1.21Z"/>
    <path class="cls-1" d="m320.82,177.69h-4.51v-3.55h12.81v3.55h-4.51v13.24h-3.79v-13.24Z"/>
    <path class="cls-1" d="m332.97,174.14h6.57c3.65,0,6.26,2.4,6.26,5.59,0,2.01-1.24,3.86-3.01,4.94l3.9,6.26h-4.49l-3.25-5.42h-2.24v5.42h-3.74v-16.79Zm6.52,8.23c1.51,0,2.52-1.1,2.52-2.4s-1.01-2.4-2.52-2.4h-2.78v4.8h2.78Z"/>
    <path class="cls-1" d="m350.36,174.14h3.81v16.79h-3.81v-16.79Z"/>
    <path class="cls-1" d="m358.19,182.61c0-4.77,3.62-8.8,8.88-8.8,1.61,0,3.57.37,4.7,1.07v3.86c-.96-.83-2.59-1.33-4.25-1.33-3.5,0-5.35,2.23-5.35,5.04s1.94,5.23,5.49,5.23c1.45,0,2.97-.41,4.1-1.07v3.79c-1.09.61-3.12.95-4.68.95-5.3,0-8.9-3.98-8.9-8.73Z"/>
    <path class="cls-1" d="m379.45,177.69h-4.51v-3.55h12.81v3.55h-4.51v13.24h-3.79v-13.24Z"/>
    <path class="cls-2" d="m280.68,202.94h4.61l6.24,16.79h-4.1l-1.16-3.36h-6.6l-1.16,3.36h-4.05l6.24-16.79Zm4.62,10.15l-2.33-6.3-2.34,6.3h4.67Z"/>
    <path class="cls-2" d="m294.89,202.94h6.02l3.78,11.56,3.78-11.56h6.04v16.79h-3.67v-13.2l-.65,2.17-3.91,11.03h-3.19l-3.91-11.03-.61-2.09v13.12h-3.68v-16.79Z"/>
    <path class="cls-2" d="m318.82,218.81v-3.99c1.33.86,2.89,1.56,4.96,1.56,1.27,0,3.05-.38,3.05-1.49,0-2.38-8.18-1.25-8.18-6.86,0-3.12,2.52-5.37,6.33-5.37,1.54,0,3.38.37,4.65.98v3.85c-1.19-.73-2.83-1.28-4.25-1.28-1.78,0-2.97.65-2.97,1.54,0,2.35,8.35,1.15,8.35,6.84,0,3.14-2.54,5.45-6.38,5.45-2.69,0-4.34-.62-5.56-1.21Z"/>
    <path class="cls-2" d="m337.37,206.49h-4.51v-3.55h12.81v3.55h-4.51v13.24h-3.79v-13.24Z"/>
    <path class="cls-2" d="m349.52,202.94h11.08v3.41h-7.34v3.09h6.21v3.5h-6.21v3.33h7.68v3.45h-11.42v-16.79Z"/>
    <path class="cls-2" d="m365.18,202.94h6.57c3.65,0,6.26,2.4,6.26,5.59,0,2.01-1.24,3.86-3.01,4.94l3.9,6.26h-4.49l-3.25-5.42h-2.24v5.42h-3.74v-16.79Zm6.52,8.23c1.51,0,2.52-1.1,2.52-2.4s-1.01-2.4-2.52-2.4h-2.78v4.8h2.78Z"/>
    <path class="cls-2" d="m382.56,202.94h5.66c4.84,0,8.78,3.26,8.78,8.42s-3.93,8.37-8.78,8.37h-5.66v-16.79Zm5.66,13.28c2.76,0,4.94-1.63,4.94-4.86s-2.18-4.79-4.94-4.79h-1.87v9.64h1.87Z"/>
    <path class="cls-2" d="m405.4,202.94h4.61l6.24,16.79h-4.1l-1.16-3.36h-6.6l-1.16,3.36h-4.05l6.24-16.79Zm4.62,10.15l-2.33-6.3-2.34,6.3h4.67Z"/>
    <path class="cls-2" d="m419.61,202.94h6.02l3.78,11.56,3.78-11.56h6.04v16.79h-3.67v-13.2l-.65,2.17-3.91,11.03h-3.19l-3.91-11.03-.61-2.09v13.12h-3.68v-16.79Z"/>
  </g>
  <circle class="cls-1" cx="106.94" cy="236.14" r="8.88"/>
  <circle class="cls-1" cx="116.87" cy="212.54" r="7.48"/>
  <circle class="cls-5" cx="126.13" cy="188.5" r="5.27"/>
  <circle class="cls-7" cx="135.6" cy="164.98" r="3.32"/>
  <circle class="cls-3" cx="133.08" cy="148.58" r="2.09"/>
  <circle class="cls-7" cx="125.97" cy="159.77" r="3.12"/>
  <circle class="cls-6" cx="118.02" cy="171.07" r="4.21"/>
  <circle class="cls-5" cx="110.53" cy="181.75" r="5.03"/>
  <circle class="cls-6" cx="104.88" cy="163.65" r="3.11"/>
  <circle class="cls-7" cx="120.29" cy="149.19" r="2.18"/>
  <circle class="cls-5" cx="89.59" cy="178.78" r="4.26"/>
  <circle class="cls-1" cx="74.35" cy="193.06" r="5.28"/>
  <circle class="cls-5" cx="76.55" cy="162.89" r="5.3"/>
  <circle class="cls-6" cx="89.8" cy="154.72" r="4.05"/>
  <circle class="cls-6" cx="104.27" cy="146.66" r="3.26"/>
  <circle class="cls-3" cx="118.44" cy="138.3" r="1.99"/>
  <circle class="cls-7" cx="147.34" cy="162.06" r="1.35"/>
  <circle class="cls-6" cx="144.43" cy="176.17" r="2.05"/>
  <circle class="cls-5" cx="141.17" cy="190.19" r="3.2"/>
  <circle class="cls-1" cx="138.92" cy="204.35" r="4.39"/>
  <circle class="cls-1" cx="135.96" cy="219.01" r="5.21"/>
  <circle class="cls-5" cx="153.99" cy="193.2" r="4.87"/>
  <circle class="cls-6" cx="153.99" cy="179.7" r="4.27"/>
  <circle class="cls-7" cx="154.03" cy="167.06" r="3.41"/>
  <circle class="cls-3" cx="153.79" cy="154.01" r="2.31"/>
  <circle class="cls-3" cx="169.29" cy="148.84" r="2.18"/>
  <circle class="cls-7" cx="165.59" cy="162.18" r="3.35"/>
  <circle class="cls-5" cx="170.51" cy="182.96" r="5.37"/>
  <circle class="cls-1" cx="175.26" cy="203.14" r="6.86"/>
  <circle class="cls-1" cx="180.32" cy="224.56" r="9.12"/>
  <circle class="cls-1" cx="214.9" cy="193.47" r="7.26"/>
  <circle class="cls-5" cx="203.72" cy="179.29" r="5.81"/>
  <circle class="cls-5" cx="184.43" cy="178.26" r="4.78"/>
  <circle class="cls-6" cx="179.95" cy="168.38" r="4.13"/>
  <circle class="cls-7" cx="174.57" cy="158.84" r="2.71"/>
  <circle class="cls-7" cx="181" cy="151.01" r="2.78"/>
  <circle class="cls-6" cx="191.66" cy="164.98" r="4.27"/>
  <circle class="cls-7" cx="192.74" cy="144.56" r="4.27"/>
  <circle class="cls-6" cx="210.8" cy="155.16" r="6.41"/>
  <circle class="cls-5" cx="229.07" cy="167.06" r="8.22"/>
  <circle class="cls-1" cx="247.46" cy="178.22" r="10.55"/>
  <circle class="cls-1" cx="255.09" cy="148.81" r="6.35"/>
  <circle class="cls-5" cx="235.3" cy="143.52" r="5.22"/>
  <circle class="cls-6" cx="216.32" cy="137.48" r="3.63"/>
  <circle class="cls-7" cx="197.91" cy="131.99" r="2.47"/>
  <circle class="cls-3" cx="193.86" cy="121.85" r="1.88"/>
  <circle class="cls-7" cx="208.95" cy="122.44" r="3.21"/>
  <circle class="cls-6" cx="225.11" cy="122.62" r="4.2"/>
  <circle class="cls-5" cx="240.12" cy="122.9" r="5"/>
  <circle class="cls-7" cx="208.37" cy="108.27" r="4.25"/>
  <circle class="cls-5" cx="235.3" cy="101.7" r="5.8"/>
  <circle class="cls-1" cx="262.28" cy="95.86" r="7.63"/>
  <circle class="cls-1" cx="289.87" cy="89.53" r="9.25"/>
  <circle class="cls-5" cx="230.08" cy="87.29" r="4.89"/>
  <circle class="cls-6" cx="217.22" cy="92.41" r="4.18"/>
  <circle class="cls-7" cx="204.39" cy="98.2" r="3.02"/>
  <circle class="cls-3" cx="191.66" cy="103.89" r="2.19"/>
  <circle class="cls-3" cx="191.66" cy="93.86" r="2"/>
  <circle class="cls-3" cx="185.19" cy="90.1" r="2.04"/>
  <circle class="cls-3" cx="177.45" cy="86.56" r="1.67"/>
  <circle class="cls-3" cx="169.6" cy="81.21" r="1.99"/>
  <circle class="cls-7" cx="196.86" cy="79.64" r="3.2"/>
  <circle class="cls-7" cx="207.87" cy="84.35" r="3.14"/>
  <circle class="cls-5" cx="223.52" cy="74.61" r="4.08"/>
  <circle class="cls-1" cx="239.25" cy="64.53" r="5.19"/>
  <circle class="cls-6" cx="208.37" cy="69.26" r="4.17"/>
  <circle class="cls-5" cx="219.65" cy="58.72" r="4.87"/>
  <circle class="cls-5" cx="206.34" cy="47.12" r="5.18"/>
  <circle class="cls-1" cx="220.69" cy="27.94" r="6.43"/>
  <circle class="cls-1" cx="234.98" cy="8.13" r="8.13"/>
  <circle class="cls-5" cx="185.83" cy="47.58" r="4.72"/>
  <circle class="cls-6" cx="191.91" cy="66.91" r="3.32"/>
  <circle class="cls-6" cx="180.38" cy="58.63" r="3.93"/>
  <circle class="cls-7" cx="174.96" cy="70.08" r="2.9"/>
  <circle class="cls-7" cx="164.03" cy="70.76" r="3.34"/>
  <circle class="cls-5" cx="168.45" cy="50.68" r="4.98"/>
  <circle class="cls-5" cx="172.91" cy="30.88" r="6.33"/>
  <circle class="cls-1" cx="177.29" cy="11.12" r="7.78"/>
  <circle class="cls-1" cx="154.43" cy="28.65" r="4.87"/>
  <circle class="cls-5" cx="154.21" cy="44.48" r="3.98"/>
  <circle class="cls-6" cx="154.21" cy="59.84" r="3.22"/>
  <circle class="cls-3" cx="154.21" cy="75.53" r="2.13"/>
  <circle class="cls-3" cx="146.26" cy="78.61" r="2.02"/>
  <circle class="cls-6" cx="143.62" cy="66.66" r="3.07"/>
  <circle class="cls-5" cx="141.39" cy="54.2" r="3.76"/>
  <circle class="cls-1" cx="138.91" cy="41.93" r="4.69"/>
  <circle class="cls-7" cx="133.45" cy="74.84" r="3.55"/>
  <circle class="cls-5" cx="124.58" cy="57.23" r="5.34"/>
  <circle class="cls-1" cx="115.94" cy="39.43" r="7.22"/>
  <circle class="cls-1" cx="106.58" cy="21.94" r="9.14"/>
  <circle class="cls-1" cx="114.61" cy="67.75" r="3.54"/>
  <circle class="cls-1" cx="120.57" cy="74.83" r="2.72"/>
  <circle class="cls-6" cx="126.6" cy="82.19" r="2.3"/>
  <circle class="cls-3" cx="132.35" cy="89.46" r="1.37"/>
  <circle class="cls-3" cx="129.9" cy="94.9" r="1.1"/>
  <circle class="cls-7" cx="124.76" cy="90.21" r="1.47"/>
  <circle class="cls-6" cx="119.63" cy="85.87" r="2"/>
  <circle class="cls-1" cx="114.61" cy="81.21" r="2.36"/>
  <circle class="cls-7" cx="116.47" cy="91.47" r="2.13"/>
  <circle class="cls-3" cx="118.6" cy="102.78" r="2.13"/>
  <circle class="cls-5" cx="84.03" cy="70.75" r="4.09"/>
  <circle class="cls-6" cx="99.92" cy="80.71" r="3.16"/>
  <circle class="cls-1" cx="66.99" cy="59.98" r="5.18"/>
  <circle class="cls-5" cx="82.89" cy="92.17" r="4.99"/>
  <circle class="cls-6" cx="94.81" cy="95.59" r="3.91"/>
  <circle class="cls-7" cx="106.58" cy="99.27" r="2.92"/>
  <circle class="cls-3" cx="109.21" cy="108.69" r="1.97"/>
  <circle class="cls-3" cx="111.79" cy="117.69" r="2.02"/>
  <circle class="cls-3" cx="122.53" cy="128.97" r=".87"/>
  <circle class="cls-3" cx="114.41" cy="132.12" r="1.46"/>
  <circle class="cls-7" cx="106.53" cy="135.23" r="1.65"/>
  <circle class="cls-6" cx="98.43" cy="138.33" r="2.23"/>
  <circle class="cls-7" cx="98.43" cy="129.4" r="3.6"/>
  <circle class="cls-7" cx="95.02" cy="118.31" r="3.14"/>
  <circle class="cls-6" cx="89.17" cy="106.33" r="3.11"/>
  <circle class="cls-5" cx="68.99" cy="104.05" r="4.08"/>
  <circle class="cls-6" cx="78.62" cy="118.91" r="4.27"/>
  <circle class="cls-5" cx="62.11" cy="119.86" r="4.87"/>
  <circle class="cls-5" cx="67.94" cy="136.88" r="5.13"/>
  <circle class="cls-1" cx="49.07" cy="100.95" r="5.33"/>
  <circle class="cls-1" cx="38.7" cy="145.36" r="7.06"/>
  <circle class="cls-1" cx="8.31" cy="152.43" r="7.96"/>
  <circle class="cls-4" cx="142.29" cy="92.61" r="1.78"/>
  <circle class="cls-4" cx="148.97" cy="91.33" r=".86"/>
  <circle class="cls-4" cx="153.99" cy="91.2" r=".99"/>
  <circle class="cls-4" cx="159.55" cy="90.83" r="1.56"/>
  <circle class="cls-4" cx="163.85" cy="92.32" r=".99"/>
  <circle class="cls-4" cx="173.7" cy="100.54" r="1.16"/>
  <circle class="cls-4" cx="176.22" cy="103.56" r="1.07"/>
  <circle class="cls-4" cx="178.78" cy="109.7" r="1.11"/>
  <circle class="cls-4" cx="180.56" cy="114.55" r="2.03"/>
  <circle class="cls-4" cx="178.35" cy="121.65" r="1.06"/>
  <circle class="cls-4" cx="178.78" cy="126.35" r="1.43"/>
  <circle class="cls-4" cx="175.16" cy="133.01" r="2.37"/>
  <circle class="cls-4" cx="170.04" cy="136.88" r="1.43"/>
  <circle class="cls-4" cx="164.43" cy="138.84" r="1.16"/>
  <circle class="cls-4" cx="159.96" cy="141.37" r="1.68"/>
  <circle class="cls-4" cx="154.03" cy="141.37" r="1.08"/>
  <circle class="cls-4" cx="145.38" cy="140.65" r="1.81"/>
  <circle class="cls-4" cx="140.76" cy="137.72" r="1.13"/>
  <circle class="cls-4" cx="135.32" cy="134.41" r="1.04"/>
  <circle class="cls-4" cx="132.61" cy="130.46" r="1.26"/>
  <circle class="cls-4" cx="130.36" cy="125.86" r=".56"/>
  <circle class="cls-4" cx="128.58" cy="121.65" r="1.78"/>
  <circle class="cls-4" cx="128.18" cy="116.78" r="1.29"/>
  <circle class="cls-4" cx="129.32" cy="111.05" r="1.14"/>
  <circle class="cls-4" cx="130.69" cy="106.33" r="1.17"/>
  <circle class="cls-4" cx="132.64" cy="102" r="1.05"/>
  <circle class="cls-4" cx="134.94" cy="99.69" r=".6"/>
  <circle class="cls-4" cx="138.45" cy="96.59" r=".96"/>
  <circle class="cls-4" cx="169.6" cy="96.59" r=".99"/>
</svg>