<svg width="18" height="18" viewBox="0 0 18 18" fill="none" xmlns="http://www.w3.org/2000/svg">
<path d="M17.4575 5.27061L11.4179 1.03654C11.2395 0.911462 11.0303 0.83773 10.8129 0.823383C10.5956 0.809035 10.3785 0.854622 10.1852 0.955176C9.992 1.05573 9.83007 1.20739 9.7171 1.39364C9.60413 1.57988 9.54445 1.79356 9.54456 2.01139V3.33553C-0.257005 6.6233 -0.524622 12.7579 0.367214 16.6672C0.525925 17.3632 1.52069 17.3479 1.6628 16.648C2.7253 11.4079 7.83194 9.92701 9.54589 9.57373V10.4795C9.54546 10.6973 9.60484 10.9111 9.71755 11.0975C9.83026 11.2839 9.99197 11.4358 10.1851 11.5367C10.3782 11.6375 10.5952 11.6834 10.8126 11.6694C11.03 11.6553 11.2394 11.5819 11.4179 11.457L17.4575 7.22295C17.6148 7.11331 17.7432 6.96729 17.8319 6.79733C17.9206 6.62737 17.9669 6.43849 17.9669 6.24678C17.9669 6.05506 17.9206 5.86619 17.8319 5.69623C17.7432 5.52627 17.6148 5.38025 17.4575 5.27061Z" fill="#EF6C27"/>
</svg>
