<svg width="19" height="19" viewBox="0 0 19 19" fill="none" xmlns="http://www.w3.org/2000/svg">
<g clip-path="url(#clip0_5_87)">
<path d="M12.825 10.1333C12.5083 9.81666 12.0333 9.81666 11.7167 10.1333L10.2917 11.5583V2.37499C10.2917 1.89999 9.975 1.58333 9.5 1.58333C9.025 1.58333 8.70833 1.89999 8.70833 2.37499V11.5583L7.28333 10.1333C6.96667 9.81666 6.49167 9.81666 6.175 10.1333C5.85833 10.45 5.85833 10.925 6.175 11.2417L8.94583 14.0125C9.10417 14.1708 9.34167 14.25 9.5 14.25C9.65833 14.25 9.89583 14.1708 10.0542 14.0125L12.825 11.2417C13.1417 10.925 13.1417 10.3708 12.825 10.1333Z" fill="white"/>
<path d="M14.2499 17.4167H4.74992C4.27492 17.4167 3.95825 17.1 3.95825 16.625C3.95825 16.15 4.27492 15.8333 4.74992 15.8333H14.2499C14.7249 15.8333 15.0416 16.15 15.0416 16.625C15.0416 17.1 14.7249 17.4167 14.2499 17.4167Z" fill="white"/>
</g>
<defs>
<clipPath id="clip0_5_87">
<rect width="19" height="19" fill="white"/>
</clipPath>
</defs>
</svg>
