<svg width="54" height="54" viewBox="0 0 54 54" fill="none" xmlns="http://www.w3.org/2000/svg">
<g clip-path="url(#clip0_5_10)">
<path d="M15.4373 13.8577L35.4083 39.969H38.4683L18.7245 13.8577H15.4373Z" fill="white"/>
<path d="M27 0C12.0893 0 0 12.0893 0 27C0 41.9108 12.0893 54 27 54C41.9108 54 54 41.9108 54 27C54 12.0893 41.9108 0 27 0ZM33.8918 43.272L25.1842 31.8983L15.2347 43.272H9.70425L22.6035 28.5255L9 10.728H20.3895L28.251 21.1252L37.3478 10.728H42.8715L30.8092 24.5115L45 43.2698L33.8918 43.272Z" fill="white"/>
</g>
<defs>
<clipPath id="clip0_5_10">
<rect width="54" height="54" fill="white"/>
</clipPath>
</defs>
</svg>
