<svg width="28" height="28" viewBox="0 0 28 28" fill="none" xmlns="http://www.w3.org/2000/svg">
<g clip-path="url(#clip0_1_62)">
<path d="M23.625 0.984375H4.375C1.96255 0.984375 0 2.94693 0 5.35938V20.6719C0 23.0843 1.96255 25.0469 4.375 25.0469H19.3047C19.9088 25.0469 20.3984 24.5573 20.3984 23.9531C20.3984 23.349 19.9088 22.8594 19.3047 22.8594H15.2762L12.7614 19.5969L20.7306 9.46072L26.0953 15.39C26.3987 15.7256 26.8774 15.8395 27.2995 15.6769C27.7214 15.5142 28 15.1085 28 14.6562V5.35938C28 2.94693 26.0374 0.984375 23.625 0.984375ZM25.8125 11.8172L21.483 7.03183C21.2668 6.79279 20.9558 6.66077 20.6341 6.67252C20.3121 6.68384 20.0114 6.83636 19.812 7.08972L11.3838 17.8098L8.52249 14.0978C8.31549 13.8293 7.99548 13.6719 7.65625 13.6719C7.65604 13.6719 7.65582 13.6719 7.65561 13.6719C7.31638 13.6721 6.99615 13.8297 6.78937 14.0987L4.38226 17.2278C4.01398 17.7068 4.10349 18.3934 4.58221 18.7617C5.06116 19.1302 5.74774 19.0404 6.11624 18.5617L7.6571 16.5583L12.5143 22.8594H4.375C3.16888 22.8594 2.1875 21.878 2.1875 20.6719V5.35938C2.1875 4.15326 3.16888 3.17188 4.375 3.17188H23.625C24.8311 3.17188 25.8125 4.15326 25.8125 5.35938V11.8172Z" fill="black"/>
<path d="M7.65625 4.92188C5.84686 4.92188 4.375 6.39374 4.375 8.20312C4.375 10.0125 5.84686 11.4844 7.65625 11.4844C9.46564 11.4844 10.9375 10.0125 10.9375 8.20312C10.9375 6.39374 9.46564 4.92188 7.65625 4.92188ZM7.65625 9.29688C7.05319 9.29688 6.5625 8.80618 6.5625 8.20312C6.5625 7.60007 7.05319 7.10938 7.65625 7.10938C8.25931 7.10938 8.75 7.60007 8.75 8.20312C8.75 8.80618 8.25931 9.29688 7.65625 9.29688Z" fill="black"/>
<path d="M25.6199 17.5515C25.6167 17.5483 25.6135 17.5449 25.6103 17.5417C25.0933 17.0211 24.4056 16.7344 23.6738 16.7344C22.944 16.7344 22.2583 17.0193 21.742 17.537L19.6303 19.6198C19.2003 20.0438 19.1956 20.7364 19.6198 21.1664C20.0439 21.5964 20.7364 21.6013 21.1665 21.1771L22.58 19.783V25.9219C22.58 26.526 23.0696 27.0156 23.6738 27.0156C24.2779 27.0156 24.7675 26.526 24.7675 25.9219V19.8163L26.1204 21.2138C26.3349 21.4356 26.6205 21.5469 26.9063 21.5469C27.1804 21.5469 27.4547 21.4445 27.667 21.239C28.1011 20.8188 28.1122 20.1265 27.692 19.6924L25.6199 17.5515Z" fill="black"/>
</g>
<defs>
<clipPath id="clip0_1_62">
<rect width="28" height="28" fill="white"/>
</clipPath>
</defs>
</svg>
