<svg width="53" height="53" viewBox="0 0 53 53" fill="none" xmlns="http://www.w3.org/2000/svg">
<g clip-path="url(#clip0_5_34)">
<path d="M26.5066 0H26.4934C11.8819 0 0 11.8852 0 26.5C0 32.2969 1.86825 37.6698 5.04494 42.0323L1.74238 51.8771L11.9283 48.6209C16.1186 51.3968 21.1172 53 26.5066 53C41.1181 53 53 41.1114 53 26.5C53 11.8886 41.1181 0 26.5066 0ZM41.9263 37.4213C41.287 39.2266 38.7496 40.7239 36.7257 41.1611C35.3411 41.4559 33.5324 41.6911 27.4441 39.167C19.6564 35.9406 14.6413 28.0271 14.2504 27.5136C13.8761 27.0002 11.1035 23.3233 11.1035 19.5206C11.1035 15.7178 13.0347 13.8661 13.8131 13.0711C14.4524 12.4186 15.5091 12.1204 16.5227 12.1204C16.8507 12.1204 17.1455 12.137 17.4105 12.1502C18.1889 12.1834 18.5798 12.2298 19.0933 13.4587C19.7326 14.999 21.2894 18.8018 21.4749 19.1926C21.6637 19.5835 21.8526 20.1135 21.5876 20.6269C21.3391 21.1569 21.1205 21.3921 20.7296 21.8426C20.3387 22.2931 19.9677 22.6376 19.5769 23.1213C19.2191 23.5419 18.815 23.9924 19.2655 24.7709C19.716 25.5328 21.2729 28.0734 23.5651 30.1139C26.5232 32.7474 28.9214 33.5887 29.7794 33.9465C30.4187 34.2115 31.1806 34.1486 31.6476 33.6517C32.2406 33.0124 32.9726 31.9524 33.7179 30.9089C34.2479 30.1603 34.9171 30.0676 35.6193 30.3326C36.3348 30.581 40.121 32.4526 40.8994 32.8401C41.6779 33.231 42.1913 33.4165 42.3801 33.7444C42.5656 34.0724 42.5656 35.6127 41.9263 37.4213Z" fill="white"/>
</g>
<defs>
<clipPath id="clip0_5_34">
<rect width="53" height="53" fill="white"/>
</clipPath>
</defs>
</svg>
